<?xml version="1.0" encoding="utf-8"?>
<svg role="img" viewBox="0 0 24 24" xmlns="http://www.w3.org/2000/svg">
	<title>V2EX</title>
	<circle cx="12" cy="12" r="12" fill="#1F1F1F"></circle>
	<path d="M.671 1.933h13.821a1.342 1.342 0 0 1 .98.425l8.166 8.725a1.342 1.342 0 0 1 0 1.834l-8.166 8.724a1.342 1.342 0 0 1-.98.426H.673A.671.671 0 0 1 0 21.395v-6.878h13.19l2.276-2.28a.336.336 0 0 0 0-.474l-2.276-2.28H0V2.604a.671.671 0 0 1 .671-.671Z" transform="translate(4.8, 4.8) scale(0.6)" fill="white"></path>
</svg>